Coordinates
version=1
nRows=4
nColumns=40
inDegrees=yes

Units are S.I. units (second, meters, Newtons, ...)
If the header above contains a line with 'inDegrees', this indicates whether rotational values are in degrees (yes) or radians (no).

endheader
time	pelvis_tilt	pelvis_list	pelvis_rotation	pelvis_tx	pelvis_ty	pelvis_tz	hip_flexion_r	hip_adduction_r	hip_rotation_r	knee_angle_r	knee_angle_r_beta	ankle_angle_r	subtalar_angle_r	mtp_angle_r	hip_flexion_l	hip_adduction_l	hip_rotation_l	knee_angle_l	knee_angle_l_beta	ankle_angle_l	subtalar_angle_l	mtp_angle_l	lumbar_extension	lumbar_bending	lumbar_rotation	arm_flex_r	arm_add_r	arm_rot_r	elbow_flex_r	pro_sup_r	wrist_flex_r	wrist_dev_r	arm_flex_l	arm_add_l	arm_rot_l	elbow_flex_l	pro_sup_l	wrist_flex_l	wrist_dev_l
      5.04999999999999982236	      9.69994686892065693939	      0.91806075343613824380	   -175.40115229790720263736	      0.39646420674802224093	      0.72246494861813903565	     -0.99866243397882470401	     41.15401970109220286531	    -46.52716522305575352902	    -35.93357435350190343115	     41.63794493719634459694	      0.72671923291817974722	    -10.62197889663029748419	      0.00000000000000000000	      0.00000000000000000000	     44.40720452117760430610	    -40.24100415830138643969	    -29.76849344496742943988	     31.25907465845160615459	      0.54557377391670247579	    -15.86041420338451324312	      0.00000000000000000000	      0.00000000000000000000	    -59.55931155730089443523	      7.47611004275681079179	      2.97585801705531061145	     59.33157496153871335309	     -8.90587310305579649139	     32.75180282344014415230	      1.66570267033951346924	     73.77228759265379665067	      0.00000000000000000000	      0.00000000000000000000	     46.89387085956623479888	     -1.20264829915550364170	     48.87604380265415215945	      2.07371614493858613670	      7.73773327434663915625	      0.00000000000000000000	      0.00000000000000000000
      5.05499999999999971578	      9.88812496962773757048	      0.93227899152148474560	   -175.48253996236022089761	      0.39647546865169308594	      0.72315063234248877500	     -0.99883576539330110045	     41.22847750584063675205	    -46.34444900701920744268	    -35.95404801967405461482	     41.34400857507647231159	      0.72158907560785368052	    -10.75853763193359391437	      0.00000000000000000000	      0.00000000000000000000	     44.30246264789782628668	    -40.13732050115989835604	    -29.92263989211198804696	     30.83607206208040452111	      0.53819098586554037222	    -16.01318282628987788030	      0.00000000000000000000	      0.00000000000000000000	    -59.23541038781039702599	      7.48721213664890417050	      2.97996746186569794190	     59.10297958114471583713	     -8.79158963734687581848	     33.06930094066438385880	      1.64493201855639226139	     72.53383642756656968231	      0.00000000000000000000	      0.00000000000000000000	     46.69395123381207923785	     -1.33950798401229498324	     49.74787583045182515207	      2.08857523895561447702	      7.62432715998558219184	      0.00000000000000000000	      0.00000000000000000000
      5.05999999999999960920	      9.89870585591793172853	      0.93898608299906249908	   -175.63624520530035511001	      0.39649190107609644240	      0.72403334464548130267	     -0.99924866724695016185	     41.15782123026519201403	    -46.12734150079686656909	    -35.98811302257036004448	     41.08304632599128325410	      0.71703442513790760504	    -10.76762077650602478229	      0.00000000000000000000	      0.00000000000000000000	     43.95960902090737221215	    -40.12115884594295778243	    -30.17902716833534171315	     30.42629091898833237906	      0.53103895570599768394	    -16.17210796536817696278	      0.00000000000000000000	      0.00000000000000000000	    -59.07908014264715035324	      7.22382687513004384527	      3.09617394902601894557	     58.93247007077206944814	     -8.93210632061477127763	     32.89875639664868600676	      1.65863359089959994108	     73.87388863525602289428	      0.00000000000000000000	      0.00000000000000000000	     46.57908641389979464975	     -1.33158620767015922759	     50.08919974600911473317	      2.06543733988927957768	      7.76870388704750869380	      0.00000000000000000000	      0.00000000000000000000
      5.06500000000000039080	     10.05781494437657741514	      0.92189667568262800845	   -175.68083889839482480966	      0.39636143185359240526	      0.72478684810854709930	     -0.99944519695204270260	     41.16433576498646829123	    -46.02031530830426930834	    -36.11539172722391555226	     40.81122898228296236312	      0.71229031752617222306	    -10.84591292697999520556	      0.00000000000000000000	      0.00000000000000000000	     43.80754977704832242580	    -39.95385069382876963573	    -30.31110785847335975518	     29.96247209597464689068	      0.52294379011168401483	    -16.31786838267679229375	      0.00000000000000000000	      0.00000000000000000000	    -58.77210918473465284251	      7.23076619738193571152	      2.98224770039902464802	     58.73841172031599455750	     -8.73968833175693760040	     33.03602193650972651540	      1.64494695832653325951	     72.43770820788292041925	      0.00000000000000000000	      0.00000000000000000000	     46.35549010836051309070	     -1.39629788559087519850	     49.68467565853725886882	      2.05475701815533318140	      7.92583839403174472693	      0.00000000000000000000	      0.00000000000000000000
